<?xml version="1.0" encoding="UTF-8" standalone="no"?>
<!DOCTYPE svg PUBLIC "-//W3C//DTD SVG 1.1//EN"
 "http://www.w3.org/Graphics/SVG/1.1/DTD/svg11.dtd">
<!-- Generated by graphviz version 2.40.1 (0)
 -->
<!-- Title: G Pages: 1 -->
<svg width="632pt" height="614pt"
 viewBox="0.00 0.00 632.00 614.00" xmlns="http://www.w3.org/2000/svg" xmlns:xlink="http://www.w3.org/1999/xlink">
<g id="graph0" class="graph" transform="scale(1 1) rotate(0) translate(4 610)">
<title>G</title>
<polygon fill="#ffffff" stroke="transparent" points="-4,4 -4,-610 628,-610 628,4 -4,4"/>
<text text-anchor="middle" x="312" y="-6.6" font-family="Times,serif" font-size="8.00" fill="#000000">PhpDependencyAnalysis by Marco Muths v2.0.2</text>
<g id="clust1" class="cluster">
<title>cluster_0</title>
<path fill="#ccccff" stroke="#000033" d="M20,-265C20,-265 327.5,-265 327.5,-265 333.5,-265 339.5,-271 339.5,-277 339.5,-277 339.5,-457 339.5,-457 339.5,-463 333.5,-469 327.5,-469 327.5,-469 20,-469 20,-469 14,-469 8,-463 8,-457 8,-457 8,-277 8,-277 8,-271 14,-265 20,-265"/>
<text text-anchor="middle" x="27.5" y="-453.8" font-family="Times,serif" font-size="14.00" fill="#000033">App</text>
</g>
<g id="clust2" class="cluster">
<title>cluster_1</title>
<path fill="#ccccff" stroke="#000033" d="M415,-50C415,-50 604,-50 604,-50 610,-50 616,-56 616,-62 616,-62 616,-586 616,-586 616,-592 610,-598 604,-598 604,-598 415,-598 415,-598 409,-598 403,-592 403,-586 403,-586 403,-62 403,-62 403,-56 409,-50 415,-50"/>
<text text-anchor="middle" x="449" y="-582.8" font-family="Times,serif" font-size="14.00" fill="#000033">Illuminate</text>
</g>
<g id="clust3" class="cluster">
<title>cluster_2</title>
<path fill="#ccccff" stroke="#000033" d="M217.5,-154C217.5,-154 331.5,-154 331.5,-154 337.5,-154 343.5,-160 343.5,-166 343.5,-166 343.5,-217 343.5,-217 343.5,-223 337.5,-229 331.5,-229 331.5,-229 217.5,-229 217.5,-229 211.5,-229 205.5,-223 205.5,-217 205.5,-217 205.5,-166 205.5,-166 205.5,-160 211.5,-154 217.5,-154"/>
<text text-anchor="middle" x="247.5" y="-213.8" font-family="Times,serif" font-size="14.00" fill="#000033">Fruitcake</text>
</g>
<g id="clust4" class="cluster">
<title>cluster_3</title>
<path fill="#ccccff" stroke="#000033" d="M214,-25C214,-25 335,-25 335,-25 341,-25 347,-31 347,-37 347,-37 347,-88 347,-88 347,-94 341,-100 335,-100 335,-100 214,-100 214,-100 208,-100 202,-94 202,-88 202,-88 202,-37 202,-37 202,-31 208,-25 214,-25"/>
<text text-anchor="middle" x="236.5" y="-84.8" font-family="Times,serif" font-size="14.00" fill="#000033">Laravel</text>
</g>
<!-- App\\Console -->
<g id="node1" class="node">
<title>App\\Console</title>
<path fill="#9999cc" stroke="#000000" d="M114.5,-352C114.5,-352 39.5,-352 39.5,-352 33.5,-352 27.5,-346 27.5,-340 27.5,-340 27.5,-328 27.5,-328 27.5,-322 33.5,-316 39.5,-316 39.5,-316 114.5,-316 114.5,-316 120.5,-316 126.5,-322 126.5,-328 126.5,-328 126.5,-340 126.5,-340 126.5,-346 120.5,-352 114.5,-352"/>
<text text-anchor="middle" x="77" y="-331.5" font-family="Times,serif" font-size="10.00" fill="#000033">App\Console</text>
</g>
<!-- Illuminate\\Foundation -->
<g id="node6" class="node">
<title>Illuminate\\Foundation</title>
<path fill="#9999cc" stroke="#000000" d="M584.5,-223C584.5,-223 434.5,-223 434.5,-223 428.5,-223 422.5,-217 422.5,-211 422.5,-211 422.5,-199 422.5,-199 422.5,-193 428.5,-187 434.5,-187 434.5,-187 584.5,-187 584.5,-187 590.5,-187 596.5,-193 596.5,-199 596.5,-199 596.5,-211 596.5,-211 596.5,-217 590.5,-223 584.5,-223"/>
<text text-anchor="middle" x="509.5" y="-202.5" font-family="Times,serif" font-size="10.00" fill="#000033">Illuminate\Foundation</text>
</g>
<!-- App\\Console&#45;&gt;Illuminate\\Foundation -->
<g id="edge1" class="edge">
<title>App\\Console&#45;&gt;Illuminate\\Foundation</title>
<path fill="none" stroke="#999999" d="M126.7751,-317.3665C130.6301,-315.6806 134.4139,-313.8883 138,-312 168.9951,-295.6793 169.4711,-278.9975 202,-266 262.4107,-241.8619 283.6896,-260.9628 347,-246 372.5778,-239.9549 377.6378,-233.8938 403,-227 407.4195,-225.7987 411.9577,-224.6275 416.5524,-223.4916"/>
<polygon fill="#999999" stroke="#999999" points="417.0631,-225.5287 422.398,-222.0719 416.0718,-221.4473 417.0631,-225.5287"/>
</g>
<!-- Illuminate\\Console -->
<g id="node7" class="node">
<title>Illuminate\\Console</title>
<path fill="#9999cc" stroke="#000000" d="M573.5,-180C573.5,-180 445.5,-180 445.5,-180 439.5,-180 433.5,-174 433.5,-168 433.5,-168 433.5,-156 433.5,-156 433.5,-150 439.5,-144 445.5,-144 445.5,-144 573.5,-144 573.5,-144 579.5,-144 585.5,-150 585.5,-156 585.5,-156 585.5,-168 585.5,-168 585.5,-174 579.5,-180 573.5,-180"/>
<text text-anchor="middle" x="509.5" y="-159.5" font-family="Times,serif" font-size="10.00" fill="#000033">Illuminate\Console</text>
</g>
<!-- App\\Console&#45;&gt;Illuminate\\Console -->
<g id="edge2" class="edge">
<title>App\\Console&#45;&gt;Illuminate\\Console</title>
<path fill="none" stroke="#999999" d="M126.8062,-318.1178C130.6944,-316.2563 134.4749,-314.2191 138,-312 171.778,-290.7367 166.1281,-266.5013 202,-249 260.4139,-220.5008 287.3651,-255.847 347,-230 376.5528,-217.1912 373.9372,-197.8847 403,-184 410.682,-180.3299 418.9622,-177.2702 427.3914,-174.7196"/>
<polygon fill="#999999" stroke="#999999" points="428.0607,-176.7123 433.2453,-173.034 426.8984,-172.6763 428.0607,-176.7123"/>
</g>
<!-- App\\Exceptions -->
<g id="node2" class="node">
<title>App\\Exceptions</title>
<path fill="#9999cc" stroke="#000000" d="M126,-395C126,-395 28,-395 28,-395 22,-395 16,-389 16,-383 16,-383 16,-371 16,-371 16,-365 22,-359 28,-359 28,-359 126,-359 126,-359 132,-359 138,-365 138,-371 138,-371 138,-383 138,-383 138,-389 132,-395 126,-395"/>
<text text-anchor="middle" x="77" y="-374.5" font-family="Times,serif" font-size="10.00" fill="#000033">App\Exceptions</text>
</g>
<!-- App\\Exceptions&#45;&gt;Illuminate\\Foundation -->
<g id="edge3" class="edge">
<title>App\\Exceptions&#45;&gt;Illuminate\\Foundation</title>
<path fill="none" stroke="#999999" d="M131.609,-358.9747C133.8175,-357.7263 135.9586,-356.4024 138,-355 173.8404,-330.3783 163.7861,-301.7476 202,-281 259.1716,-249.9597 285.6991,-282.7783 347,-261 374.437,-251.2525 375.903,-237.6561 403,-227 407.3857,-225.2753 411.9286,-223.6778 416.5564,-222.199"/>
<polygon fill="#999999" stroke="#999999" points="417.3378,-224.156 422.4583,-220.3888 416.1062,-220.1406 417.3378,-224.156"/>
</g>
<!-- App\\Http -->
<g id="node3" class="node">
<title>App\\Http</title>
<path fill="#9999cc" stroke="#000000" d="M103.5,-438C103.5,-438 50.5,-438 50.5,-438 44.5,-438 38.5,-432 38.5,-426 38.5,-426 38.5,-414 38.5,-414 38.5,-408 44.5,-402 50.5,-402 50.5,-402 103.5,-402 103.5,-402 109.5,-402 115.5,-408 115.5,-414 115.5,-414 115.5,-426 115.5,-426 115.5,-432 109.5,-438 103.5,-438"/>
<text text-anchor="middle" x="77" y="-417.5" font-family="Times,serif" font-size="10.00" fill="#000033">App\Http</text>
</g>
<!-- App\\Providers -->
<g id="node4" class="node">
<title>App\\Providers</title>
<path fill="#9999cc" stroke="#000000" d="M319.5,-438C319.5,-438 229.5,-438 229.5,-438 223.5,-438 217.5,-432 217.5,-426 217.5,-426 217.5,-414 217.5,-414 217.5,-408 223.5,-402 229.5,-402 229.5,-402 319.5,-402 319.5,-402 325.5,-402 331.5,-408 331.5,-414 331.5,-414 331.5,-426 331.5,-426 331.5,-432 325.5,-438 319.5,-438"/>
<text text-anchor="middle" x="274.5" y="-417.5" font-family="Times,serif" font-size="10.00" fill="#000033">App\Providers</text>
</g>
<!-- App\\Http&#45;&gt;App\\Providers -->
<g id="edge13" class="edge">
<title>App\\Http&#45;&gt;App\\Providers</title>
<path fill="none" stroke="#999999" d="M115.5488,-420C142.7012,-420 179.673,-420 211.1269,-420"/>
<polygon fill="#999999" stroke="#999999" points="211.3396,-422.1001 217.3396,-420 211.3396,-417.9001 211.3396,-422.1001"/>
</g>
<!-- App\\Http&#45;&gt;Illuminate\\Foundation -->
<g id="edge5" class="edge">
<title>App\\Http&#45;&gt;Illuminate\\Foundation</title>
<path fill="none" stroke="#999999" d="M115.5358,-410.5465C123.5002,-407.4203 131.4486,-403.3265 138,-398 180.1112,-363.7622 156.3461,-323.348 202,-294 256.6259,-258.8844 287.7358,-302.5488 347,-276 377.1815,-262.4795 373.3848,-241.7196 403,-227 407.339,-224.8434 411.8783,-222.8981 416.5342,-221.1434"/>
<polygon fill="#999999" stroke="#999999" points="417.5413,-223.0139 422.4878,-219.0212 416.131,-219.0578 417.5413,-223.0139"/>
</g>
<!-- Illuminate\\Routing -->
<g id="node8" class="node">
<title>Illuminate\\Routing</title>
<path fill="#9999cc" stroke="#000000" d="M573.5,-395C573.5,-395 445.5,-395 445.5,-395 439.5,-395 433.5,-389 433.5,-383 433.5,-383 433.5,-371 433.5,-371 433.5,-365 439.5,-359 445.5,-359 445.5,-359 573.5,-359 573.5,-359 579.5,-359 585.5,-365 585.5,-371 585.5,-371 585.5,-383 585.5,-383 585.5,-389 579.5,-395 573.5,-395"/>
<text text-anchor="middle" x="509.5" y="-374.5" font-family="Times,serif" font-size="10.00" fill="#000033">Illuminate\Routing</text>
</g>
<!-- App\\Http&#45;&gt;Illuminate\\Routing -->
<g id="edge4" class="edge">
<title>App\\Http&#45;&gt;Illuminate\\Routing</title>
<path fill="none" stroke="#999999" d="M115.556,-407.4266C123.1114,-404.5919 130.8927,-401.4044 138,-398 168.0411,-383.6102 169.9297,-368.0016 202,-359 242.6894,-347.5792 350.3518,-357.1225 426.7773,-366.0966"/>
<polygon fill="#999999" stroke="#999999" points="426.9411,-368.2306 433.1466,-366.8516 427.4355,-364.0598 426.9411,-368.2306"/>
</g>
<!-- Illuminate\\Cookie -->
<g id="node9" class="node">
<title>Illuminate\\Cookie</title>
<path fill="#9999cc" stroke="#000000" d="M569.5,-352C569.5,-352 449.5,-352 449.5,-352 443.5,-352 437.5,-346 437.5,-340 437.5,-340 437.5,-328 437.5,-328 437.5,-322 443.5,-316 449.5,-316 449.5,-316 569.5,-316 569.5,-316 575.5,-316 581.5,-322 581.5,-328 581.5,-328 581.5,-340 581.5,-340 581.5,-346 575.5,-352 569.5,-352"/>
<text text-anchor="middle" x="509.5" y="-331.5" font-family="Times,serif" font-size="10.00" fill="#000033">Illuminate\Cookie</text>
</g>
<!-- App\\Http&#45;&gt;Illuminate\\Cookie -->
<g id="edge7" class="edge">
<title>App\\Http&#45;&gt;Illuminate\\Cookie</title>
<path fill="none" stroke="#999999" d="M115.7687,-407.8499C123.3065,-404.9803 131.027,-401.6717 138,-398 168.9951,-381.6793 168.9856,-363.7094 202,-352 276.5811,-325.5479 367.6842,-323.662 431.2895,-326.7803"/>
<polygon fill="#999999" stroke="#999999" points="431.2562,-328.8814 437.3575,-327.0971 431.4752,-324.6871 431.2562,-328.8814"/>
</g>
<!-- Illuminate\\Session -->
<g id="node10" class="node">
<title>Illuminate\\Session</title>
<path fill="#9999cc" stroke="#000000" d="M573.5,-309C573.5,-309 445.5,-309 445.5,-309 439.5,-309 433.5,-303 433.5,-297 433.5,-297 433.5,-285 433.5,-285 433.5,-279 439.5,-273 445.5,-273 445.5,-273 573.5,-273 573.5,-273 579.5,-273 585.5,-279 585.5,-285 585.5,-285 585.5,-297 585.5,-297 585.5,-303 579.5,-309 573.5,-309"/>
<text text-anchor="middle" x="509.5" y="-288.5" font-family="Times,serif" font-size="10.00" fill="#000033">Illuminate\Session</text>
</g>
<!-- App\\Http&#45;&gt;Illuminate\\Session -->
<g id="edge8" class="edge">
<title>App\\Http&#45;&gt;Illuminate\\Session</title>
<path fill="none" stroke="#999999" d="M115.54,-409.4454C123.3329,-406.4093 131.2105,-402.6307 138,-398 173.6463,-373.688 163.7393,-344.9461 202,-325 211.9371,-319.8196 339.6399,-306.9405 427.3149,-298.6043"/>
<polygon fill="#999999" stroke="#999999" points="427.5183,-300.6945 433.2931,-298.037 427.1215,-296.5133 427.5183,-300.6945"/>
</g>
<!-- Illuminate\\View -->
<g id="node11" class="node">
<title>Illuminate\\View</title>
<path fill="#9999cc" stroke="#000000" d="M562,-266C562,-266 457,-266 457,-266 451,-266 445,-260 445,-254 445,-254 445,-242 445,-242 445,-236 451,-230 457,-230 457,-230 562,-230 562,-230 568,-230 574,-236 574,-242 574,-242 574,-254 574,-254 574,-260 568,-266 562,-266"/>
<text text-anchor="middle" x="509.5" y="-245.5" font-family="Times,serif" font-size="10.00" fill="#000033">Illuminate\View</text>
</g>
<!-- App\\Http&#45;&gt;Illuminate\\View -->
<g id="edge9" class="edge">
<title>App\\Http&#45;&gt;Illuminate\\View</title>
<path fill="none" stroke="#999999" d="M115.5747,-410.0641C123.4498,-406.9763 131.3516,-403.0202 138,-398 176.8815,-368.6409 160.0977,-333.8582 202,-309 257.8506,-275.867 283.9398,-306.508 347,-291 372.8123,-284.6522 377.463,-277.3776 403,-270 414.5348,-266.6676 426.9108,-263.6333 438.9983,-260.9545"/>
<polygon fill="#999999" stroke="#999999" points="439.4883,-262.9971 444.904,-259.6683 438.5945,-258.8933 439.4883,-262.9971"/>
</g>
<!-- Illuminate\\Auth -->
<g id="node12" class="node">
<title>Illuminate\\Auth</title>
<path fill="#9999cc" stroke="#000000" d="M562,-481C562,-481 457,-481 457,-481 451,-481 445,-475 445,-469 445,-469 445,-457 445,-457 445,-451 451,-445 457,-445 457,-445 562,-445 562,-445 568,-445 574,-451 574,-457 574,-457 574,-469 574,-469 574,-475 568,-481 562,-481"/>
<text text-anchor="middle" x="509.5" y="-460.5" font-family="Times,serif" font-size="10.00" fill="#000033">Illuminate\Auth</text>
</g>
<!-- App\\Http&#45;&gt;Illuminate\\Auth -->
<g id="edge10" class="edge">
<title>App\\Http&#45;&gt;Illuminate\\Auth</title>
<path fill="none" stroke="#999999" d="M115.5831,-406.6507C140.0158,-398.9148 172.4633,-389.9453 202,-386 265.8771,-377.4677 287.3506,-361.6066 347,-386 379.2897,-399.2047 372.2203,-424.5806 403,-441 414.0229,-446.8802 426.463,-451.1904 438.8512,-454.3494"/>
<polygon fill="#999999" stroke="#999999" points="438.5973,-456.4481 444.922,-455.8095 439.5795,-452.3646 438.5973,-456.4481"/>
</g>
<!-- Illuminate\\Http -->
<g id="node13" class="node">
<title>Illuminate\\Http</title>
<path fill="#9999cc" stroke="#000000" d="M562,-438C562,-438 457,-438 457,-438 451,-438 445,-432 445,-426 445,-426 445,-414 445,-414 445,-408 451,-402 457,-402 457,-402 562,-402 562,-402 568,-402 574,-408 574,-414 574,-414 574,-426 574,-426 574,-432 568,-438 562,-438"/>
<text text-anchor="middle" x="509.5" y="-417.5" font-family="Times,serif" font-size="10.00" fill="#000033">Illuminate\Http</text>
</g>
<!-- App\\Http&#45;&gt;Illuminate\\Http -->
<g id="edge11" class="edge">
<title>App\\Http&#45;&gt;Illuminate\\Http</title>
<path fill="none" stroke="#999999" d="M115.5133,-406.4608C122.999,-403.7304 130.7652,-400.8284 138,-398 166.7529,-386.7591 171.7409,-377.1216 202,-371 265.1648,-358.2215 284.1746,-356.6453 347,-371 373.9365,-377.1546 376.8288,-389.1384 403,-398 414.4491,-401.8767 426.8327,-405.1903 438.9672,-407.98"/>
<polygon fill="#999999" stroke="#999999" points="438.5851,-410.0464 444.899,-409.3076 439.5025,-405.9478 438.5851,-410.0464"/>
</g>
<!-- Illuminate\\Support -->
<g id="node14" class="node">
<title>Illuminate\\Support</title>
<path fill="#9999cc" stroke="#000000" d="M573.5,-524C573.5,-524 445.5,-524 445.5,-524 439.5,-524 433.5,-518 433.5,-512 433.5,-512 433.5,-500 433.5,-500 433.5,-494 439.5,-488 445.5,-488 445.5,-488 573.5,-488 573.5,-488 579.5,-488 585.5,-494 585.5,-500 585.5,-500 585.5,-512 585.5,-512 585.5,-518 579.5,-524 573.5,-524"/>
<text text-anchor="middle" x="509.5" y="-503.5" font-family="Times,serif" font-size="10.00" fill="#000033">Illuminate\Support</text>
</g>
<!-- App\\Http&#45;&gt;Illuminate\\Support -->
<g id="edge12" class="edge">
<title>App\\Http&#45;&gt;Illuminate\\Support</title>
<path fill="none" stroke="#999999" d="M115.5358,-411.9561C180.3778,-399.2467 308.0391,-378.012 347,-399 386.8283,-420.4552 365.5597,-458.6063 403,-484 410.4982,-489.0856 418.9276,-493.0377 427.6756,-496.1024"/>
<polygon fill="#999999" stroke="#999999" points="427.1082,-498.1262 433.4636,-497.9912 428.4112,-494.1334 427.1082,-498.1262"/>
</g>
<!-- Fruitcake\\Cors -->
<g id="node18" class="node">
<title>Fruitcake\\Cors</title>
<path fill="#9999cc" stroke="#000000" d="M323.5,-198C323.5,-198 225.5,-198 225.5,-198 219.5,-198 213.5,-192 213.5,-186 213.5,-186 213.5,-174 213.5,-174 213.5,-168 219.5,-162 225.5,-162 225.5,-162 323.5,-162 323.5,-162 329.5,-162 335.5,-168 335.5,-174 335.5,-174 335.5,-186 335.5,-186 335.5,-192 329.5,-198 323.5,-198"/>
<text text-anchor="middle" x="274.5" y="-177.5" font-family="Times,serif" font-size="10.00" fill="#000033">Fruitcake\Cors</text>
</g>
<!-- App\\Http&#45;&gt;Fruitcake\\Cors -->
<g id="edge6" class="edge">
<title>App\\Http&#45;&gt;Fruitcake\\Cors</title>
<path fill="none" stroke="#999999" d="M115.6554,-411.1817C123.7036,-408.0135 131.6567,-403.7419 138,-398 186.9306,-353.7083 165.8962,-319.2491 202,-264 216.6412,-241.5948 236.745,-218.7671 252.0695,-202.5749"/>
<polygon fill="#999999" stroke="#999999" points="253.6319,-203.9796 256.2565,-198.1898 250.5941,-201.0791 253.6319,-203.9796"/>
</g>
<!-- App\\Providers&#45;&gt;Illuminate\\Foundation -->
<g id="edge19" class="edge">
<title>App\\Providers&#45;&gt;Illuminate\\Foundation</title>
<path fill="none" stroke="#999999" d="M284.2125,-401.8686C307.8746,-358.3529 369.0468,-249.9085 403,-227 407.2746,-224.1159 411.8494,-221.5968 416.6115,-219.3976"/>
<polygon fill="#999999" stroke="#999999" points="417.5985,-221.2592 422.2813,-216.9602 415.9396,-217.4006 417.5985,-221.2592"/>
</g>
<!-- App\\Providers&#45;&gt;Illuminate\\Auth -->
<g id="edge20" class="edge">
<title>App\\Providers&#45;&gt;Illuminate\\Auth</title>
<path fill="none" stroke="#999999" d="M331.687,-430.464C363.9178,-436.3615 404.4554,-443.7791 438.6822,-450.0419"/>
<polygon fill="#999999" stroke="#999999" points="438.7162,-452.1829 444.9963,-451.1972 439.4723,-448.0515 438.7162,-452.1829"/>
</g>
<!-- App\\Providers&#45;&gt;Illuminate\\Http -->
<g id="edge21" class="edge">
<title>App\\Providers&#45;&gt;Illuminate\\Http</title>
<path fill="none" stroke="#999999" d="M331.687,-420C363.9178,-420 404.4554,-420 438.6822,-420"/>
<polygon fill="#999999" stroke="#999999" points="438.9963,-422.1001 444.9963,-420 438.9962,-417.9001 438.9963,-422.1001"/>
</g>
<!-- App\\Providers&#45;&gt;Illuminate\\Support -->
<g id="edge18" class="edge">
<title>App\\Providers&#45;&gt;Illuminate\\Support</title>
<path fill="none" stroke="#999999" d="M305.2005,-438.1251C330.6379,-452.4391 368.1392,-471.9463 403,-484 410.9013,-486.732 419.2556,-489.1771 427.6699,-491.3528"/>
<polygon fill="#999999" stroke="#999999" points="427.1691,-493.3922 433.4998,-492.8163 428.1917,-489.3186 427.1691,-493.3922"/>
</g>
<!-- Illuminate\\Cache -->
<g id="node17" class="node">
<title>Illuminate\\Cache</title>
<path fill="#9999cc" stroke="#000000" d="M566,-567C566,-567 453,-567 453,-567 447,-567 441,-561 441,-555 441,-555 441,-543 441,-543 441,-537 447,-531 453,-531 453,-531 566,-531 566,-531 572,-531 578,-537 578,-543 578,-543 578,-555 578,-555 578,-561 572,-567 566,-567"/>
<text text-anchor="middle" x="509.5" y="-546.5" font-family="Times,serif" font-size="10.00" fill="#000033">Illuminate\Cache</text>
</g>
<!-- App\\Providers&#45;&gt;Illuminate\\Cache -->
<g id="edge22" class="edge">
<title>App\\Providers&#45;&gt;Illuminate\\Cache</title>
<path fill="none" stroke="#999999" d="M290.8185,-438.319C313.4957,-462.5636 356.9712,-504.8205 403,-527 412.902,-531.7714 423.8083,-535.5104 434.75,-538.4399"/>
<polygon fill="#999999" stroke="#999999" points="434.4936,-540.5414 440.8261,-539.9854 435.529,-536.4711 434.4936,-540.5414"/>
</g>
<!-- App\\Models -->
<g id="node5" class="node">
<title>App\\Models</title>
<path fill="#9999cc" stroke="#000000" d="M111,-309C111,-309 43,-309 43,-309 37,-309 31,-303 31,-297 31,-297 31,-285 31,-285 31,-279 37,-273 43,-273 43,-273 111,-273 111,-273 117,-273 123,-279 123,-285 123,-285 123,-297 123,-297 123,-303 117,-309 111,-309"/>
<text text-anchor="middle" x="77" y="-288.5" font-family="Times,serif" font-size="10.00" fill="#000033">App\Models</text>
</g>
<!-- App\\Models&#45;&gt;Illuminate\\Foundation -->
<g id="edge14" class="edge">
<title>App\\Models&#45;&gt;Illuminate\\Foundation</title>
<path fill="none" stroke="#999999" d="M86.7278,-272.6795C104.6334,-241.1821 146.1495,-177.7669 202,-153 260.9118,-126.8756 284.4942,-137.312 347,-153 374.386,-159.8734 376.4549,-173.3776 403,-183 407.3681,-184.5834 411.8806,-186.0657 416.4693,-187.4516"/>
<polygon fill="#999999" stroke="#999999" points="415.9693,-189.4932 422.3173,-189.156 417.1446,-185.461 415.9693,-189.4932"/>
</g>
<!-- Illuminate\\Database -->
<g id="node15" class="node">
<title>Illuminate\\Database</title>
<path fill="#9999cc" stroke="#000000" d="M577,-137C577,-137 442,-137 442,-137 436,-137 430,-131 430,-125 430,-125 430,-113 430,-113 430,-107 436,-101 442,-101 442,-101 577,-101 577,-101 583,-101 589,-107 589,-113 589,-113 589,-125 589,-125 589,-131 583,-137 577,-137"/>
<text text-anchor="middle" x="509.5" y="-116.5" font-family="Times,serif" font-size="10.00" fill="#000033">Illuminate\Database</text>
</g>
<!-- App\\Models&#45;&gt;Illuminate\\Database -->
<g id="edge16" class="edge">
<title>App\\Models&#45;&gt;Illuminate\\Database</title>
<path fill="none" stroke="#999999" d="M85.1974,-272.9885C101.7301,-239.078 142.6261,-166.4354 202,-136 221.2926,-126.1105 339.5689,-121.9284 423.6608,-120.1914"/>
<polygon fill="#999999" stroke="#999999" points="423.9512,-122.2861 429.9077,-120.0655 423.8665,-118.0869 423.9512,-122.2861"/>
</g>
<!-- Illuminate\\Notifications -->
<g id="node16" class="node">
<title>Illuminate\\Notifications</title>
<path fill="#9999cc" stroke="#000000" d="M596,-94C596,-94 423,-94 423,-94 417,-94 411,-88 411,-82 411,-82 411,-70 411,-70 411,-64 417,-58 423,-58 423,-58 596,-58 596,-58 602,-58 608,-64 608,-70 608,-70 608,-82 608,-82 608,-88 602,-94 596,-94"/>
<text text-anchor="middle" x="509.5" y="-73.5" font-family="Times,serif" font-size="10.00" fill="#000033">Illuminate\Notifications</text>
</g>
<!-- App\\Models&#45;&gt;Illuminate\\Notifications -->
<g id="edge17" class="edge">
<title>App\\Models&#45;&gt;Illuminate\\Notifications</title>
<path fill="none" stroke="#999999" d="M84.4537,-272.8669C100.2199,-237.0496 140.6163,-157.5387 202,-121 257.9006,-87.7251 282.6268,-110.3907 347,-101 365.6857,-98.2741 385.5659,-95.2876 404.7753,-92.3571"/>
<polygon fill="#999999" stroke="#999999" points="405.0994,-94.432 410.7133,-91.4498 404.4649,-90.2802 405.0994,-94.432"/>
</g>
<!-- Laravel\\Sanctum -->
<g id="node19" class="node">
<title>Laravel\\Sanctum</title>
<path fill="#9999cc" stroke="#000000" d="M327,-69C327,-69 222,-69 222,-69 216,-69 210,-63 210,-57 210,-57 210,-45 210,-45 210,-39 216,-33 222,-33 222,-33 327,-33 327,-33 333,-33 339,-39 339,-45 339,-45 339,-57 339,-57 339,-63 333,-69 327,-69"/>
<text text-anchor="middle" x="274.5" y="-48.5" font-family="Times,serif" font-size="10.00" fill="#000033">Laravel\Sanctum</text>
</g>
<!-- App\\Models&#45;&gt;Laravel\\Sanctum -->
<g id="edge15" class="edge">
<title>App\\Models&#45;&gt;Laravel\\Sanctum</title>
<path fill="none" stroke="#999999" d="M86.7056,-272.9172C105.8158,-238.2994 150.9272,-161.2852 202,-107 213.8338,-94.4218 228.6725,-82.4388 241.8379,-72.8091"/>
<polygon fill="#999999" stroke="#999999" points="243.3412,-74.3143 246.9814,-69.1028 240.8858,-70.9068 243.3412,-74.3143"/>
</g>
</g>
</svg>
